<svg xmlns="http://www.w3.org/2000/svg" width="250.972" height="192.606" viewBox="0 0 250.972 192.606">
  <g id="Group_7" data-name="Group 7" transform="translate(-85.758 -366.697)">
    <path id="Icon_material-location-on" data-name="Icon material-location-on" d="M32.387,3A24.869,24.869,0,0,0,7.5,27.887c0,18.665,24.887,46.219,24.887,46.219S57.274,46.552,57.274,27.887A24.869,24.869,0,0,0,32.387,3Zm0,33.775a8.888,8.888,0,1,1,8.888-8.888A8.888,8.888,0,0,1,32.387,36.775Z" transform="translate(178.857 418.323)" fill="#67bbdf"/>
    <path id="Icon_material-location-on-2" data-name="Icon material-location-on" d="M26.619,3A19.105,19.105,0,0,0,7.5,22.119c0,14.34,19.119,35.507,19.119,35.507s19.12-21.167,19.12-35.507A19.1,19.1,0,0,0,26.619,3Zm0,25.948a6.828,6.828,0,1,1,6.828-6.828A6.828,6.828,0,0,1,26.619,28.948Z" transform="translate(290.991 363.697)"/>
    <path id="Icon_material-location-on-3" data-name="Icon material-location-on" d="M26.619,3A19.105,19.105,0,0,0,7.5,22.119c0,14.34,19.119,35.507,19.119,35.507s19.12-21.167,19.12-35.507A19.1,19.1,0,0,0,26.619,3Zm0,25.948a6.828,6.828,0,1,1,6.828-6.828A6.828,6.828,0,0,1,26.619,28.948Z" transform="translate(290.991 489.429)"/>
    <path id="Icon_material-location-on-4" data-name="Icon material-location-on" d="M26.619,3A19.105,19.105,0,0,0,7.5,22.119c0,14.34,19.119,35.507,19.119,35.507s19.12-21.167,19.12-35.507A19.1,19.1,0,0,0,26.619,3Zm0,25.948a6.828,6.828,0,1,1,6.828-6.828A6.828,6.828,0,0,1,26.619,28.948Z" transform="translate(78.258 363.697)"/>
    <path id="Icon_material-location-on-5" data-name="Icon material-location-on" d="M26.619,3A19.105,19.105,0,0,0,7.5,22.119c0,14.34,19.119,35.507,19.119,35.507s19.12-21.167,19.12-35.507A19.1,19.1,0,0,0,26.619,3Zm0,25.948a6.828,6.828,0,1,1,6.828-6.828A6.828,6.828,0,0,1,26.619,28.948Z" transform="translate(78.258 489.429)"/>
    <path id="Path_1040" data-name="Path 1040" d="M420.992,421.134S426.242,406,461.859,409.5s31.5-7,31.5-7" transform="translate(-188.607 5.757)" fill="none" stroke="#000" stroke-width="1" stroke-dasharray="5"/>
    <path id="Path_1043" data-name="Path 1043" d="M420.992,402.495s5.251,15.139,40.867,11.639,31.5,7,31.5,7" transform="translate(-188.607 72.948)" fill="none" stroke="#000" stroke-width="1" stroke-dasharray="5"/>
    <path id="Path_1041" data-name="Path 1041" d="M493.507,421.134S488.256,406,452.64,409.5s-31.5-7-31.5-7" transform="translate(-304.325 5.757)" fill="none" stroke="#000" stroke-width="1" stroke-dasharray="5"/>
    <path id="Path_1042" data-name="Path 1042" d="M493.507,402.495s-5.251,15.139-40.867,11.639-31.5,7-31.5,7" transform="translate(-304.325 72.948)" fill="none" stroke="#000" stroke-width="1" stroke-dasharray="5"/>
    <path id="Path_1046" data-name="Path 1046" d="M17,0c9.389,0,17,2.462,17,5.5S26.389,11,17,11,0,8.538,0,5.5,7.611,0,17,0Z" transform="translate(300.242 421.303)" fill="#efefef"/>
    <ellipse id="Ellipse_5" data-name="Ellipse 5" cx="17" cy="5.5" rx="17" ry="5.5" transform="translate(194.242 494.303)" fill="#f3f3f3"/>
    <ellipse id="Ellipse_4" data-name="Ellipse 4" cx="17" cy="5.5" rx="17" ry="5.5" transform="translate(300.242 548.303)" fill="#efefef"/>
    <ellipse id="Ellipse_2" data-name="Ellipse 2" cx="17" cy="5.5" rx="17" ry="5.5" transform="translate(88.242 421.303)" fill="#efefef"/>
    <ellipse id="Ellipse_3" data-name="Ellipse 3" cx="17" cy="5.5" rx="17" ry="5.5" transform="translate(88.242 548.303)" fill="#efefef"/>
  </g>
</svg>
